<svg xmlns="http://www.w3.org/2000/svg" viewBox="0 0 503.58 91.77"><defs><style>.cls-1{fill:#ff3d00;}.cls-2{fill:#fff;}.cls-3{fill:#262626;}</style></defs><title>Asset 15</title><g id="Layer_2" data-name="Layer 2"><g id="Layer_1-2" data-name="Layer 1"><path class="cls-1" d="M73.8,7.25S62.43,0,38,0h-.14C13.47,0,2.1,7.25,2.1,7.25S-3.73,37.61,4,59.64C9.92,76.33,35.51,90.45,37.95,91.77c2.44-1.32,28-15.44,33.91-32.13C79.62,37.61,73.8,7.25,73.8,7.25Z"/><circle class="cls-2" cx="38.36" cy="39.36" r="26.63"/><path class="cls-2" d="M46.23,47.2A16.81,16.81,0,1,1,63.05,30.39,16.83,16.83,0,0,1,46.23,47.2Z"/><path class="cls-1" d="M46.24,16.57A13.82,13.82,0,1,1,32.42,30.39,13.83,13.83,0,0,1,46.24,16.57m0-6A19.82,19.82,0,1,0,66.05,30.39,19.82,19.82,0,0,0,46.24,10.57Z"/><path class="cls-3" d="M266.13,34.18c3.9-1.51,7.27-1.42,9.75.25s3.84,4.81,3.89,9c.08,5.65.06,11.4,0,17q0,3.69,0,7.38v4.09h7.24q0-2.55,0-5.05c0-4.16,0-8.09,0-12.09,0-1,0-1.93,0-2.9a128.12,128.12,0,0,0-.61-13.13c-.7-6-4.78-10.19-10.93-11.11a18.91,18.91,0,0,0-12.85,2.13c-1.3.76-2.56,1.57-3.79,2.35l-1.59,1-.3.19-.23-.27c-8.62-10.24-20.83-4.77-27.35-.59l-.58.37-.05-.69a48.14,48.14,0,0,0-.63-5.12h-5v45h7.3l.2-32.79.12-.12a29.27,29.27,0,0,1,4.63-3.93c4.22-2.42,8.22-2.8,11.26-1.06s4.7,5.33,4.75,10.13c0,4.37,0,8.8,0,13.1q0,2.93,0,5.86v8.82h7.25V38.69l.2-.12c.72-.44,1.42-.91,2.16-1.41A26.87,26.87,0,0,1,266.13,34.18Z"/><path class="cls-3" d="M503.46,11.19l-.1-.13H496.6v1.11c0,1,0,1.87,0,2.76q0,5.42,0,10.85c0,8.46,0,17.21-.27,25.81-.22,8.1-4.81,13.29-12.94,14.63a30.83,30.83,0,0,1-8.91.17c-8.71-1.15-13.48-6.29-13.78-14.87s-.43-24.33-.51-33.74c0-3.25,0-5.75-.07-6.73l-2.49,0c-1.55,0-3.6-.08-4.32,0,0,3.8,0,7.69,0,11.62-.06,10-.12,20.25.24,29.91.34,9,4.85,15.29,13.06,18.14,5.91,2.05,12.47,2.39,20.07,1,9.71-1.74,15.83-8,16.35-16.83.61-10.24.59-20.69.57-30.8,0-4.17,0-8.49,0-12.73C503.57,11.34,503.51,11.25,503.46,11.19Z"/><path class="cls-3" d="M358.73,27c-.34-1.28-.58-2.58-.82-3.84s-.43-2.31-.72-3.45l-2.25,0-2.13,0c-.07,3.56-.19,27.61-.16,38.91,0,10.4,3.2,13.58,13.55,13.59l2.66,0,2.67,0c0-1.07-.05-2.17-.1-3.23s-.07-1.84-.09-2.68l-.09-.09c-1,.07-2.42,0-3.25,0h-.22c-6.63-.17-8-1.54-8-8.1q0-6.7,0-13.41V32.78h10.83V27.29H358.81Z"/><path class="cls-3" d="M340.8,48.22c0-.91,0-1.85,0-2.77-.68-10-6.13-16.56-14.95-17.95a39.44,39.44,0,0,0-6-.44,26.24,26.24,0,0,0-8.63,1.16c-5.44,2.11-8.92,5.44-10.63,10.18a33.37,33.37,0,0,0-.7,20.24c1.91,7.21,6.48,11.47,13.59,12.67,9.16,1.54,16.45.23,21.08-3.78,4.34-3.75,6.44-9.81,6.26-18h0C340.79,49.09,340.79,48.65,340.8,48.22Zm-7.34,5.7c-.93,8-5.72,12.43-13.52,12.43h-.32c-7.87-.12-12.68-4.68-13.55-12.83-.1-.94-.13-1.9-.16-2.83,0-.43,0-.86,0-1.29v0c0-.37,0-.74,0-1.1,0-.78.06-1.58.13-2.38.7-8.17,5.45-12.75,13.37-12.9,8.43-.13,13.18,4,14.08,12.38A38.63,38.63,0,0,1,333.47,53.92Z"/><path class="cls-3" d="M204.6,30.4c-2.95-2.1-7.48-3.14-12.08-3.14-5,0-10.05,1.22-13.26,3.62-7.34,5.5-7.6,13.73-7.26,21,.39,8.31,3.16,13.65,8.73,16.8,9.17,5.19,19.93,3.4,28.64,1.88,0-1.23,0-2.52-.07-3.66,0-.76,0-1.45,0-2A90.2,90.2,0,0,1,191.59,66a13,13,0,0,1-9.48-4.44,12.57,12.57,0,0,1-2.7-9.73l0-.36H211.4C212,46.76,212.48,36,204.6,30.4ZM204,45.61H179.49l0-.38A10.76,10.76,0,0,1,182,36.91,12.63,12.63,0,0,1,191.23,33c4.34-.14,7.63.87,9.79,3s3.1,5.17,3,9.21Z"/><path class="cls-3" d="M412.51,30.4c-2.95-2.1-7.48-3.14-12.08-3.14-5,0-10.05,1.22-13.26,3.62-7.34,5.5-7.6,13.73-7.26,21,.39,8.31,3.16,13.65,8.73,16.8,9.17,5.19,19.93,3.4,28.64,1.88,0-1.23,0-2.52-.07-3.66,0-.76,0-1.45,0-2A90.21,90.21,0,0,1,399.5,66,13,13,0,0,1,390,61.59a12.57,12.57,0,0,1-2.7-9.73l0-.36h31.95C420,46.76,420.39,36,412.51,30.4Zm-.58,15.22H387.4l0-.38a10.76,10.76,0,0,1,2.53-8.32A12.63,12.63,0,0,1,399.14,33c4.33-.14,7.63.87,9.79,3s3.1,5.17,3,9.21Z"/><path class="cls-3" d="M138.11,47.32l19.16,24h9.83L145.61,45.09l.33-.12A19.71,19.71,0,0,0,155,38.4a17.85,17.85,0,0,0,3.33-11,15.61,15.61,0,0,0-1.82-7.86,15,15,0,0,0-5-5.17A17,17,0,0,0,145,11.74a56.06,56.06,0,0,0-8.7-.57h-15.4V71.36h7.57V47.23H138ZM128.45,41V17.6h8.24a29.17,29.17,0,0,1,5.72.47,11.49,11.49,0,0,1,4.08,1.65,8.24,8.24,0,0,1,3,3.47,11.57,11.57,0,0,1,1,4.81,17,17,0,0,1-.85,5.63,10.8,10.8,0,0,1-2.65,4.17,9.85,9.85,0,0,1-4.85,2.59,29.49,29.49,0,0,1-6.29.62Z"/></g></g></svg>